PathFileType	4	(X/Y/Z)	pose2sim_150-449.trc
DataRate	CameraRate	NumFrames	NumMarkers	Units	OrigDataRate	OrigDataStartFrame	OrigNumFrames
50	50	8	22	m	50	150	300
Frame#	Time	Hip			RHip			RKnee			RAnkle			RBigToe			RSmallToe			RHeel			LHip			LKnee			LAnkle			LBigToe			LSmallToe			LHeel			Neck			Head			Nose			RShoulder			RElbow			RWrist			LShoulder			LElbow			LWrist			
		X1	Y1	Z1	X2	Y2	Z2	X3	Y3	Z3	X4	Y4	Z4	X5	Y5	Z5	X6	Y6	Z6	X7	Y7	Z7	X8	Y8	Z8	X9	Y9	Z9	X10	Y10	Z10	X11	Y11	Z11	X12	Y12	Z12	X13	Y13	Z13	X14	Y14	Z14	X15	Y15	Z15	X16	Y16	Z16	X17	Y17	Z17	X18	Y18	Z18	X19	Y19	Z19	X20	Y20	Z20	X21	Y21	Z21	X22	Y22	Z22	
150	3.0	0.13360784958417776	0.9879136562541416	-0.03931710124109265	0.033298512899864775	0.9669302313492109	-0.03096715052621484	0.013663001978779146	0.5165197277510295	-0.06465677535255601	0.0032145743987061766	0.09401328100643237	-0.0905105604372429	0.014472554951494496	0.04654372458646506	0.11292748572165956	-0.033615131802751615	0.03875868272671545	0.06491265853202133	0.009903877106949172	0.04480333380050189	-0.12946459792947987	0.23604997231906855	0.9634853291127113	-0.04717465806932426	0.23999151817515235	0.5151892586798081	-0.10410042738635278	0.2448307216407812	0.08924860981108283	-0.11528371222422792	0.2751176342883021	0.039397286032124	0.0895725354898321	0.31303446504955246	0.038012906930575976	0.031078587106763117	0.2346373999017825	0.043593445276824155	-0.14602385547541924	0.14844228381560806	1.5812817157241978	-0.056047580318186165	0.15247623695593246	1.8321518321160748	-0.02340272254297881	0.14514067757433655	1.6986981814627187	0.0897495896591793	-0.008722807402323448	1.4846859956199623	-0.05256954170050489	-0.06265847552089782	1.2599276618419197	0.11216822561313021	-0.059568662935181114	1.4841477144359225	0.19815273598472033	0.30459345456875697	1.4856284349517006	-0.08708764626859837	0.36069123707731077	1.2607225950018122	0.07651896329306772	0.32182236137912773	1.476175858402201	0.23407036710503487
151	3.02	0.13196977973698634	0.9833080611452408	-0.04331072780750901	0.032177088331095505	0.9677410227997258	-0.03897250696888838	0.013615212050897892	0.5191160495883652	-0.0696288918216488	-0.001355085009707436	0.0929830183099432	-0.09521539830889361	0.017234333341850924	0.03747014946063851	0.09887912931444615	-0.03470762305988874	0.03909042535123977	0.06213202052817931	0.006254298077172453	0.04458012424675378	-0.1378933870115399	0.2373505467462547	0.9640813580511061	-0.05880685114052171	0.24070767080767919	0.5167853819682788	-0.10722899997115942	0.2435915752905354	0.09048263424682683	-0.11466310157326873	0.27374445606143316	0.03834620611818949	0.0765558399082915	0.3156571902225344	0.04115371799539153	0.012554780893278973	0.23673384651001594	0.04501869735404844	-0.15099076263253616	0.14755456315925466	1.5821953834563955	-0.05291438659568014	0.15167487605623084	1.8326711342927693	-0.017486447422439568	0.14114244578501964	1.7038214573717225	0.10450478579754512	-0.011059261058607326	1.4891806070647318	-0.04688726077153494	-0.059424710296525324	1.2577268614829917	0.11295899139182779	-0.024383584462023218	1.4874800132058608	0.25687909910913803	0.3048313344671914	1.487001163502321	-0.08965047505200083	0.3634851465844184	1.2591942511358816	0.07425942458745778	0.31652121250281184	1.4730579361458944	0.2540751678327558
152	3.04	0.1316125030555536	0.9811698484546977	-0.03813685931532166	0.03179827636231587	0.9655026192315441	-0.034138764397346054	0.013450876157281057	0.5191036891465837	-0.06701718183950936	0.0007856151552694715	0.09205072792546641	-0.09636508522484886	0.01476219482905776	0.036906973128813005	0.10057351457444025	-0.03713496165548139	0.0399090888224507	0.057342077251948766	0.00701403705320018	0.04636283648733551	-0.14059253602686725	0.23706005186672355	0.9646353529584715	-0.06134122455193262	0.23920214501779122	0.5198327017554557	-0.10790228409284432	0.24397511736965904	0.08819222051032534	-0.11317256604706154	0.27535349256423003	0.039074188606923986	0.08056191076770997	0.31328180541763284	0.041535780493280494	0.018700757722565152	0.23652100523619515	0.044108094996304685	-0.15293545894757052	0.14682137067844123	1.581387723655696	-0.05506200610519804	0.1499868750152957	1.8347073276381005	-0.00969547078632013	0.1413723456339313	1.7044697648654716	0.10631992086081983	-0.010800593772457746	1.486762193457594	-0.051927487850576486	-0.05966879572482126	1.2629402658929552	0.12009656188296083	-0.020787785476741656	1.4921809379233488	0.25795875861815004	0.30330686301820275	1.4872877523150068	-0.0877863980022204	0.3669872017427518	1.2649215348211211	0.0795843767103091	0.3158548017978933	1.4814738950209265	0.2492906261117632
153	3.06	0.1336037461342335	0.9804547260435307	-0.04111034790686919	0.03224651565078829	0.9679748301757202	-0.03413168606175525	0.015361375587393759	0.517672020250525	-0.06951110071489437	0.00030510351411803404	0.09283140039401211	-0.0946049752844865	0.016892417986128654	0.035944442684542346	0.09959830587818501	-0.037923998121625474	0.03745242348034387	0.058230976335019655	0.004758121308560772	0.04543187702393613	-0.13932971530428845	0.23819133293718275	0.964088361580742	-0.05434277160357335	0.2403228848018707	0.5181536549334742	-0.10480163920250415	0.24635531835368502	0.08890075385318175	-0.11282839843538209	0.27473979679717053	0.03818765096451514	0.0791892505125047	0.31292966642786607	0.04080059158183093	0.017462968034091496	0.237464399024393	0.043194609132434635	-0.1518177571730107	0.146423663497061	1.581796607261616	-0.0502380221271581	0.14782512623365884	1.8343033891576659	-0.007736859434186623	0.13997984315450088	1.7040926287779696	0.10988079685889311	-0.008916426138433018	1.4881734741637842	-0.05375014451978187	-0.0585347734206865	1.2659117064988181	0.12430076416905446	-0.017392715836211426	1.4999812872693865	0.25940586325837584	0.3060201809264718	1.4874833249995756	-0.08346842289332229	0.362212953705931	1.2639014883330886	0.08691124774709107	0.3127536405201959	1.484262583716533	0.23949031181545682
154	3.08	0.13441288057532352	0.9898966186062903	-0.029919216846950134	0.03403024673042728	0.9701958824332282	-0.02806814701922166	0.013474231214040906	0.5189702655523363	-0.06883631471411886	0.003575660223208182	0.09495469919217542	-0.08930621722405752	0.014630668751491476	0.04738501914711129	0.11060118424404305	-0.03227966225725076	0.039555994126054046	0.060196649592219015	0.010293497934769545	0.046991161711753764	-0.12689246810933322	0.23570015382263865	0.9665051642130263	-0.041493339525021135	0.2401584187209993	0.514755043491707	-0.10077729758789883	0.2461430806135614	0.08980160136563033	-0.11317561082315916	0.2732134318365906	0.040282519017598745	0.0913269912131146	0.31078560458616444	0.03900083560563763	0.032645018369168936	0.23534603242183072	0.04564566349054309	-0.15147949246900852	0.15008314816259477	1.5798320643511448	-0.049131405831748604	0.15186059906887917	1.828863639522652	-0.010378968334675179	0.13903395199783725	1.6961183088147636	0.09863431790336515	-0.0034880979802761	1.483150939727253	-0.04968567748253366	-0.062094454185975145	1.2704311229430685	0.12258471046696726	-0.05443485052478032	1.5014586022937717	0.16468148158773022	0.3068173139080371	1.4836136218896707	-0.07564968205582462	0.35805326614799465	1.2714514966928117	0.1016615722928669	0.30437575096986436	1.4873772378240167	0.22450288050135067
155	3.1	0.13268682561451792	0.9823211405619597	-0.039602056098164536	0.0315709795546897	0.9692620518460621	-0.031624644325997806	0.011928881912083222	0.519600796833802	-0.06683972504562981	0.0016569207663146587	0.09314250677050197	-0.09721988839025857	0.017797931553011022	0.034955411238090664	0.09537978630252662	-0.03635234661342874	0.037964917331769946	0.05528809376099194	0.0046674862912272465	0.046443117737511655	-0.13475643510651011	0.2365161042955399	0.9645364297994381	-0.050682926596155094	0.2396136416404533	0.5189334790777197	-0.10830725899100944	0.24582381648304802	0.09074702804843143	-0.11242344610470278	0.2756962495795938	0.03689027303350066	0.0763309863995294	0.3149617832763099	0.04275107536293279	0.017257324228121665	0.23861049371056325	0.04717619555564452	-0.1551717944200756	0.1467966589288226	1.5833444880084375	-0.05232438624156813	0.14695588768095658	1.832918271989205	-0.006261598900544194	0.13621307255749632	1.7024287076390023	0.10297285266589369	-0.007276386058119704	1.4919709191890924	-0.05005838444458599	-0.06455354676265569	1.2688818522287741	0.12058003330028198	-0.034920143191286133	1.4973895268262762	0.1971302919779889	0.30384519641027286	1.4913519093208671	-0.08113202635856562	0.3623250794831596	1.2709065228521448	0.09250119755493631	0.3074765973563752	1.4925775551775722	0.22570195908951576
156	3.12	0.13009906163869092	0.981570018405695	-0.03710895773938234	0.030252112298490574	0.9715674533708338	-0.03209817743849381	0.013071421043425537	0.5196937411627434	-0.06760043919492761	-0.00027184656410720665	0.09260697059539064	-0.0970988186572419	0.014581290252224077	0.037385496662151414	0.09821009222369861	-0.035500091636652145	0.03879863797519416	0.05430187752621953	0.0058787977678760196	0.04556849230352915	-0.13894249800550235	0.23728801239967212	0.9664189943583296	-0.055494198698495686	0.23956509382711236	0.5171950967412932	-0.10024569958485026	0.24373694381276073	0.09019763606136533	-0.11102433397271273	0.2707907317403911	0.036538070701679144	0.08013468571856669	0.30921405590777284	0.04051779853500664	0.024852735472652706	0.2366554875383486	0.046416641255215794	-0.15370162124239475	0.14587107897436663	1.5830115535587748	-0.046555591925137856	0.14846091061068054	1.8351926531820217	-0.007237961447513975	0.14036062166715554	1.702624242179623	0.11435240314411864	-0.009195016476813176	1.4914409338966186	-0.049586531863598377	-0.06485405819087217	1.2724344338321156	0.12636797631729185	-0.04214111893836387	1.4989783769220002	0.17827856700878875	0.3021055942843925	1.4903754428829419	-0.08021424013980309	0.36136112062830433	1.2699028242580188	0.090928468557902	0.3020573337325929	1.4966483855959205	0.21166902500721738
157	3.14	0.13003717672470536	0.9837160616471828	-0.036466898364867786	0.030092413292931816	0.9697402441737284	-0.03250318254429532	0.011348058075009984	0.518023451192183	-0.0678109551153365	-0.0005930546153087086	0.09006828147652622	-0.09511005821367222	0.019205622176638612	0.03816300310633351	0.1038797024569423	-0.03446483574127209	0.038040831278888534	0.061298448208167114	0.0038982916693014132	0.041735620268099606	-0.13741735869923477	0.23489945190879216	0.9657876750016753	-0.04888393392532351	0.23974497928148858	0.5156966260216044	-0.10091020170500095	0.24372509891311359	0.08800336415236967	-0.11286109508862156	0.27085879892857406	0.037471742351605504	0.08219991978930433	0.31058005586008236	0.03865825575497538	0.020887544426971702	0.23820779943625217	0.04386556570353008	-0.15360461861629768	0.1442243569080783	1.5834975870046237	-0.050105927974839704	0.1467550316495193	1.8334249143131878	-0.010723235537936283	0.13680987080446252	1.7032312855386862	0.11323746826763069	-0.009407081009977369	1.493148468744466	-0.04953935689755944	-0.06366630892871308	1.2743770831957766	0.12431022404591126	-0.03801584961604423	1.5032976732112453	0.1808820906024658	0.30263907911242177	1.4905720198816426	-0.07449311107948849	0.35953253215455655	1.2675719774450631	0.09383876683742959	0.30713258335551463	1.492829418788393	0.18946718381342095
